<?xml version="1.0" standalone="no"?>
<!DOCTYPE svg PUBLIC "-//W3C//DTD SVG 20010904//EN"
 "http://www.w3.org/TR/2001/REC-SVG-20010904/DTD/svg10.dtd">
<svg version="1.0" xmlns="http://www.w3.org/2000/svg"
 width="433.000000pt" height="153.000000pt" viewBox="0 0 433.000000 153.000000"
 preserveAspectRatio="xMidYMid meet">

<g transform="translate(0.000000,153.000000) scale(0.100000,-0.100000)"
fill="#000000" stroke="none">
<path d="M1090 1515 c-144 -26 -359 -114 -527 -216 -198 -120 -396 -296 -480
-426 -74 -115 -102 -249 -69 -328 56 -134 157 -169 407 -140 180 20 365 68
724 185 267 87 452 140 541 155 l41 6 -5 -32 c-3 -24 0 -36 14 -46 26 -19 49
-17 165 17 58 16 126 34 153 39 47 9 47 8 42 -14 -7 -29 33 -65 73 -65 14 0
91 20 171 45 80 24 148 45 153 45 4 0 7 -13 7 -29 0 -31 22 -61 45 -61 31 0
66 22 127 79 l64 60 45 -16 c27 -9 95 -17 180 -20 l136 -6 0 -28 c0 -36 29
-69 61 -69 14 0 82 18 151 41 181 59 235 69 290 52 24 -7 55 -13 69 -13 l25 0
-25 -20 c-34 -26 -40 -55 -18 -82 20 -25 -3 -30 200 41 103 36 318 81 389 81
76 0 115 45 73 83 -29 27 -106 21 -297 -23 -164 -39 -176 -40 -199 -25 -13 9
-66 22 -116 30 -50 8 -98 19 -106 26 -20 16 -79 5 -229 -42 -157 -48 -163 -49
-167 -6 -2 25 -10 35 -38 49 -30 14 -50 15 -140 7 -156 -13 -240 1 -240 40 0
23 -24 44 -46 39 -10 -2 -36 -30 -59 -62 -43 -62 -65 -79 -65 -52 0 48 -79 42
-261 -19 -118 -40 -119 -40 -119 -20 0 8 -9 24 -20 35 -35 35 -112 26 -335
-38 -53 -15 361 388 455 443 49 30 68 59 56 90 -8 22 -53 18 -89 -7 -72 -50
-211 -171 -348 -305 -132 -130 -149 -143 -181 -143 -104 0 -256 -40 -670 -176
-342 -112 -466 -146 -628 -169 -261 -37 -361 -7 -377 112 -24 184 250 474 626
662 323 162 577 197 755 106 64 -34 70 -35 92 -20 30 20 30 40 0 70 -83 83
-277 116 -476 80z"/>
<path d="M3258 1216 c-57 -15 -77 -31 -94 -73 -18 -42 -5 -77 38 -100 25 -14
56 -18 130 -18 82 0 101 3 125 21 15 12 29 31 31 43 3 15 8 21 19 17 23 -9 53
12 53 39 0 67 -169 107 -302 71z m150 -82 c31 -6 28 -32 -5 -45 -33 -13 -140
-4 -160 13 -40 33 62 53 165 32z"/>
<path d="M1520 267 c0 -73 17 -97 67 -97 46 0 63 26 63 98 0 48 -3 62 -15 62
-11 0 -15 -13 -15 -54 0 -60 -19 -88 -48 -69 -12 7 -18 27 -20 67 -2 41 -7 56
-17 56 -12 0 -15 -15 -15 -63z"/>
<path d="M1694 297 c32 -42 32 -44 1 -90 -25 -35 -25 -37 -6 -37 11 0 28 12
38 26 l17 26 19 -26 c10 -14 27 -26 38 -26 19 0 18 2 -6 37 -31 46 -31 48 1
90 23 31 24 33 5 33 -10 0 -28 -12 -38 -26 l-19 -25 -14 25 c-8 17 -22 26 -37
26 l-24 0 25 -33z"/>
<path d="M1890 250 c0 -64 3 -80 15 -80 10 0 15 10 15 30 0 17 4 30 9 30 5 0
19 -13 31 -30 12 -17 30 -30 41 -30 20 0 20 0 0 29 -18 25 -19 30 -6 41 22 18
19 67 -4 80 -11 5 -38 10 -60 10 l-41 0 0 -80z m85 30 c0 -9 -11 -16 -27 -18
-23 -3 -28 1 -28 18 0 17 5 21 28 18 16 -2 27 -9 27 -18z"/>
<path d="M2040 250 l0 -80 55 0 c42 0 55 3 55 15 0 11 -11 15 -40 15 -33 0
-40 3 -40 20 0 16 7 20 35 20 24 0 35 5 35 15 0 10 -11 15 -35 15 -24 0 -35 5
-35 15 0 11 11 15 40 15 29 0 40 4 40 15 0 12 -13 15 -55 15 l-55 0 0 -80z"/>
<path d="M2186 314 c-29 -28 -14 -74 24 -74 9 0 25 -6 36 -14 18 -14 18 -15 1
-22 -10 -3 -29 -1 -43 6 -27 15 -40 9 -31 -14 15 -38 103 -31 113 9 8 31 -8
52 -47 60 -16 4 -31 11 -35 16 -9 15 27 23 48 10 27 -17 43 -3 22 20 -21 23
-67 25 -88 3z"/>
<path d="M2320 250 l0 -80 55 0 c42 0 55 3 55 15 0 11 -11 15 -40 15 -33 0
-40 3 -40 20 0 16 7 20 35 20 24 0 35 5 35 15 0 10 -11 15 -35 15 -24 0 -35 5
-35 15 0 11 11 15 40 15 29 0 40 4 40 15 0 12 -13 15 -55 15 l-55 0 0 -80z"/>
<path d="M2495 313 c-51 -127 -55 -143 -36 -143 10 0 21 9 24 20 4 14 14 20
35 20 22 0 32 -6 37 -20 3 -11 15 -20 25 -20 16 0 15 7 -12 80 -22 58 -36 80
-48 80 -10 0 -21 -8 -25 -17z m35 -59 c0 -8 -6 -14 -14 -14 -9 0 -12 7 -9 20
6 22 23 18 23 -6z"/>
<path d="M2620 250 c0 -64 3 -80 15 -80 10 0 15 10 15 30 0 17 4 30 9 30 6 0
18 -13 28 -30 9 -16 25 -30 35 -30 22 0 22 4 2 35 -15 22 -15 26 0 40 39 40 7
85 -60 85 l-44 0 0 -80z m85 30 c0 -9 -11 -16 -27 -18 -23 -3 -28 1 -28 18 0
17 5 21 28 18 16 -2 27 -9 27 -18z"/>
<path d="M2782 307 c-68 -72 31 -184 100 -115 21 21 21 23 4 26 -10 2 -23 -1
-29 -7 -34 -34 -81 16 -59 64 12 26 40 33 59 14 6 -6 19 -9 29 -7 17 3 17 5
-4 26 -29 29 -72 29 -100 -1z"/>
<path d="M2920 250 c0 -64 3 -80 15 -80 10 0 15 11 15 35 0 34 1 35 40 35 39
0 40 -1 40 -35 0 -24 5 -35 15 -35 12 0 15 16 15 80 0 64 -3 80 -15 80 -10 0
-15 -10 -15 -30 0 -28 -2 -30 -40 -30 -38 0 -40 2 -40 30 0 20 -5 30 -15 30
-12 0 -15 -16 -15 -80z"/>
<path d="M3100 250 l0 -80 55 0 c42 0 55 3 55 15 0 11 -11 15 -40 15 -33 0
-40 3 -40 20 0 16 7 20 35 20 24 0 35 5 35 15 0 10 -11 15 -35 15 -24 0 -35 5
-35 15 0 11 11 15 40 15 29 0 40 4 40 15 0 12 -13 15 -55 15 l-55 0 0 -80z"/>
<path d="M3230 250 c0 -64 3 -80 15 -80 10 0 15 10 15 30 0 17 4 30 9 30 5 0
19 -13 31 -30 12 -17 30 -30 41 -30 20 0 20 0 0 29 -18 25 -19 30 -6 41 22 18
19 67 -4 80 -11 5 -38 10 -60 10 l-41 0 0 -80z m85 30 c0 -9 -11 -16 -27 -18
-23 -3 -28 1 -28 18 0 17 5 21 28 18 16 -2 27 -9 27 -18z"/>
</g>
</svg>
